<mxfile host="Electron" agent="Mozilla/5.0 (Windows NT 10.0; Win64; x64) AppleWebKit/537.36 (KHTML, like Gecko) draw.io/24.7.8 Chrome/128.0.6613.36 Electron/32.0.1 Safari/537.36" version="24.7.8">
  <diagram id="Ht1M8jgEwFfnCIfOTk4-" name="Page-1">
    <mxGraphModel dx="1793" dy="1105" grid="1" gridSize="10" guides="1" tooltips="1" connect="1" arrows="1" fold="1" page="1" pageScale="1" pageWidth="1169" pageHeight="827" math="0" shadow="0">
      <root>
        <mxCell id="0" />
        <mxCell id="1" parent="0" />
        <mxCell id="8SGL58_hKRmVrYpkCJOy-14" value="&lt;div&gt;&lt;br&gt;&lt;/div&gt;" style="whiteSpace=wrap;html=1;aspect=fixed;" vertex="1" parent="1">
          <mxGeometry x="1110" y="80" width="620" height="620" as="geometry" />
        </mxCell>
        <mxCell id="8SGL58_hKRmVrYpkCJOy-11" value="&lt;div&gt;&lt;br&gt;&lt;/div&gt;" style="whiteSpace=wrap;html=1;aspect=fixed;" vertex="1" parent="1">
          <mxGeometry x="440" y="80" width="620" height="620" as="geometry" />
        </mxCell>
        <mxCell id="8SGL58_hKRmVrYpkCJOy-9" value="&lt;div&gt;&lt;br&gt;&lt;/div&gt;" style="whiteSpace=wrap;html=1;aspect=fixed;" vertex="1" parent="1">
          <mxGeometry x="60" y="80" width="360" height="360" as="geometry" />
        </mxCell>
        <mxCell id="UEzPUAAOIrF-is8g5C7q-76" value="&lt;font color=&quot;#cc0000&quot;&gt;Клиент - пользователь&lt;/font&gt;" style="outlineConnect=0;fontColor=#ffffff;fillColor=#1ba1e2;strokeColor=#006EAF;dashed=0;verticalLabelPosition=bottom;verticalAlign=top;align=center;html=1;fontSize=12;fontStyle=0;aspect=fixed;pointerEvents=1;shape=mxgraph.aws4.object;labelBackgroundColor=#ffffff;" parent="1" vertex="1">
          <mxGeometry x="120" y="140" width="78" height="78" as="geometry" />
        </mxCell>
        <mxCell id="8SGL58_hKRmVrYpkCJOy-6" style="edgeStyle=isometricEdgeStyle;rounded=0;orthogonalLoop=1;jettySize=auto;html=1;exitX=0.5;exitY=1;exitDx=0;exitDy=0;exitPerimeter=0;entryX=0.5;entryY=0;entryDx=0;entryDy=0;" edge="1" parent="1" source="8SGL58_hKRmVrYpkCJOy-3" target="8SGL58_hKRmVrYpkCJOy-5">
          <mxGeometry relative="1" as="geometry" />
        </mxCell>
        <mxCell id="8SGL58_hKRmVrYpkCJOy-3" value="Запрос данных к БД&lt;div&gt;на добавление&lt;/div&gt;&lt;div&gt;&lt;br&gt;&lt;/div&gt;" style="shape=cylinder3;whiteSpace=wrap;html=1;boundedLbl=1;backgroundOutline=1;size=15;fillColor=#6a00ff;fontColor=#ffffff;strokeColor=#3700CC;" vertex="1" parent="1">
          <mxGeometry x="520" y="170" width="120" height="180" as="geometry" />
        </mxCell>
        <mxCell id="8SGL58_hKRmVrYpkCJOy-4" style="edgeStyle=entityRelationEdgeStyle;rounded=0;orthogonalLoop=1;jettySize=auto;html=1;entryX=0;entryY=0.5;entryDx=0;entryDy=0;entryPerimeter=0;dashed=1;" edge="1" parent="1" source="UEzPUAAOIrF-is8g5C7q-76" target="8SGL58_hKRmVrYpkCJOy-3">
          <mxGeometry relative="1" as="geometry" />
        </mxCell>
        <mxCell id="8SGL58_hKRmVrYpkCJOy-8" style="edgeStyle=orthogonalEdgeStyle;rounded=0;orthogonalLoop=1;jettySize=auto;html=1;exitX=0.5;exitY=1;exitDx=0;exitDy=0;entryX=0.5;entryY=0;entryDx=0;entryDy=0;dashed=1;dashPattern=8 8;curved=1;" edge="1" parent="1" source="8SGL58_hKRmVrYpkCJOy-5" target="8SGL58_hKRmVrYpkCJOy-7">
          <mxGeometry relative="1" as="geometry" />
        </mxCell>
        <mxCell id="8SGL58_hKRmVrYpkCJOy-5" value="Проверка данных в БД&lt;div&gt;Фиксация изменений в БД&lt;/div&gt;&lt;div&gt;Обновление Информации&lt;/div&gt;" style="shape=dataStorage;whiteSpace=wrap;html=1;fixedSize=1;fillColor=#d80073;fontColor=#ffffff;strokeColor=#A50040;" vertex="1" parent="1">
          <mxGeometry x="490" y="379" width="180" height="70" as="geometry" />
        </mxCell>
        <mxCell id="8SGL58_hKRmVrYpkCJOy-7" value="Сообщение пользователю о том что данные о новом зарегистрированном автомобиле успешно зафиксированы в БД" style="rounded=1;whiteSpace=wrap;html=1;fillColor=#a20025;fontColor=#ffffff;strokeColor=#6F0000;" vertex="1" parent="1">
          <mxGeometry x="1150" y="210" width="290" height="80" as="geometry" />
        </mxCell>
        <mxCell id="8SGL58_hKRmVrYpkCJOy-10" value="Клиент" style="text;html=1;align=center;verticalAlign=middle;whiteSpace=wrap;rounded=0;" vertex="1" parent="1">
          <mxGeometry x="160" y="90" width="140" height="30" as="geometry" />
        </mxCell>
        <mxCell id="8SGL58_hKRmVrYpkCJOy-15" value="Сервер" style="text;html=1;align=center;verticalAlign=middle;whiteSpace=wrap;rounded=0;" vertex="1" parent="1">
          <mxGeometry x="680" y="100" width="160" height="30" as="geometry" />
        </mxCell>
        <mxCell id="8SGL58_hKRmVrYpkCJOy-16" value="Приложение" style="text;html=1;align=center;verticalAlign=middle;whiteSpace=wrap;rounded=0;" vertex="1" parent="1">
          <mxGeometry x="1350" y="100" width="160" height="30" as="geometry" />
        </mxCell>
        <mxCell id="8SGL58_hKRmVrYpkCJOy-17" value="Запрос данных к БД&lt;div&gt;на просмотр&lt;/div&gt;&lt;div&gt;&lt;br&gt;&lt;/div&gt;" style="shape=cylinder3;whiteSpace=wrap;html=1;boundedLbl=1;backgroundOutline=1;size=15;fillColor=#1ba1e2;fontColor=#ffffff;strokeColor=#006EAF;" vertex="1" parent="1">
          <mxGeometry x="710" y="170" width="120" height="180" as="geometry" />
        </mxCell>
        <mxCell id="8SGL58_hKRmVrYpkCJOy-19" style="edgeStyle=orthogonalEdgeStyle;rounded=0;orthogonalLoop=1;jettySize=auto;html=1;entryX=0.5;entryY=0;entryDx=0;entryDy=0;entryPerimeter=0;curved=1;dashed=1;" edge="1" parent="1" source="UEzPUAAOIrF-is8g5C7q-76" target="8SGL58_hKRmVrYpkCJOy-17">
          <mxGeometry relative="1" as="geometry" />
        </mxCell>
        <mxCell id="8SGL58_hKRmVrYpkCJOy-25" style="edgeStyle=orthogonalEdgeStyle;rounded=0;orthogonalLoop=1;jettySize=auto;html=1;exitX=0.5;exitY=1;exitDx=0;exitDy=0;curved=1;dashed=1;dashPattern=8 8;" edge="1" parent="1" source="8SGL58_hKRmVrYpkCJOy-20" target="8SGL58_hKRmVrYpkCJOy-24">
          <mxGeometry relative="1" as="geometry" />
        </mxCell>
        <mxCell id="8SGL58_hKRmVrYpkCJOy-20" value="Поиск данных по БД" style="shape=dataStorage;whiteSpace=wrap;html=1;fixedSize=1;fillColor=#fa6800;fontColor=#000000;strokeColor=#C73500;" vertex="1" parent="1">
          <mxGeometry x="690" y="490" width="180" height="70" as="geometry" />
        </mxCell>
        <mxCell id="8SGL58_hKRmVrYpkCJOy-21" style="edgeStyle=isometricEdgeStyle;rounded=0;orthogonalLoop=1;jettySize=auto;html=1;exitX=0.5;exitY=1;exitDx=0;exitDy=0;exitPerimeter=0;entryX=0.544;entryY=0.038;entryDx=0;entryDy=0;entryPerimeter=0;" edge="1" parent="1" source="8SGL58_hKRmVrYpkCJOy-17" target="8SGL58_hKRmVrYpkCJOy-20">
          <mxGeometry relative="1" as="geometry" />
        </mxCell>
        <mxCell id="8SGL58_hKRmVrYpkCJOy-24" value="Приложение получило информацию, загрузило её на таблицу, вывело сообщение пользователю о том что информация по выборке была добавлена на экран" style="rounded=1;whiteSpace=wrap;html=1;fillColor=#76608a;fontColor=#ffffff;strokeColor=#432D57;" vertex="1" parent="1">
          <mxGeometry x="1150" y="350" width="290" height="80" as="geometry" />
        </mxCell>
      </root>
    </mxGraphModel>
  </diagram>
</mxfile>
